<svg xmlns="http://www.w3.org/2000/svg" width="127" height="127" viewBox="0 0 127 127">
  <g id="_002-office" data-name="002-office" transform="translate(7.628 6)">
    <g id="Ellipse_82" data-name="Ellipse 82" transform="translate(-7.628 -6)" fill="#fff" stroke="#ff9e55" stroke-width="2">
      <circle cx="63.5" cy="63.5" r="63.5" stroke="none"/>
      <circle cx="63.5" cy="63.5" r="62.5" fill="none"/>
    </g>
    <g id="Group_470" data-name="Group 470" transform="translate(5.068 1.688)">
      <path id="Path_1419" data-name="Path 1419" d="M74.559,61.94H64.433a8.439,8.439,0,1,1,2.789-16.4A10.125,10.125,0,0,1,85.846,46.9" transform="translate(-50.935 -36.624)" fill="#d8d7da"/>
      <path id="Path_1420" data-name="Path 1420" d="M391.629,323.882H368V280l23.629,10.127Z" transform="translate(-297.119 -225.992)" fill="#2f3438"/>
      <path id="Path_1421" data-name="Path 1421" d="M191.257,121.89H144V37.5L191.257,24Z" transform="translate(-120.376 -24)" fill="#e4f2f6"/>
      <path id="Path_1422" data-name="Path 1422" d="M208,368h20.253v20.253H208Z" transform="translate(-170.874 -295.426)" fill="#83d8f4"/>
      <path id="Path_1423" data-name="Path 1423" d="M192,464h27v5.063H192Z" transform="translate(-158.25 -371.173)" fill="#d8d7da"/>
      <g id="Group_469" data-name="Group 469" transform="translate(30.375 21.941)">
        <path id="Path_1424" data-name="Path 1424" d="M176,288h33.755v10.127H176Z" transform="translate(-176 -254.245)" fill="#fd4755"/>
        <path id="Path_1425" data-name="Path 1425" d="M400,360h16.878v10.127H400Z" transform="translate(-352.743 -311.055)" fill="#fd4755"/>
        <path id="Path_1426" data-name="Path 1426" d="M176,208h33.755v10.127H176Z" transform="translate(-176 -191.122)" fill="#fd4755"/>
        <path id="Path_1427" data-name="Path 1427" d="M176,128h33.755v10.127H176Z" transform="translate(-176 -128)" fill="#fd4755"/>
      </g>
      <ellipse id="Ellipse_77" data-name="Ellipse 77" cx="8" cy="12" rx="8" ry="12" transform="translate(0.304 57.312)" fill="#91cc04"/>
      <path id="Path_1428" data-name="Path 1428" d="M40,432l6.751,3.376" transform="translate(-38.317 -345.924)" fill="#d8d7da"/>
      <path id="Path_1429" data-name="Path 1429" d="M368,149.941h15.19a6.751,6.751,0,1,0-1.791-13.259,10.13,10.13,0,0,0-13.4-8.1" transform="translate(-297.119 -106.059)" fill="#d8d7da"/>
    </g>
    <g id="Group_471" data-name="Group 471" transform="translate(0 0)">
      <path id="Path_1430" data-name="Path 1430" d="M110.953,113.889h-1.688V81.822a1.688,1.688,0,0,0-1.023-1.551l-22.605-9.69V63.256h13.5a8.439,8.439,0,0,0,0-16.878c-.162,0-.325,0-.487.015a11.805,11.805,0,0,0-13.015-8.331V17.687a1.686,1.686,0,0,0-2.152-1.622L48.958,25.929a11.814,11.814,0,0,0-20.407-1.3,10.127,10.127,0,1,0-1.985,20.057H35v69.2H23.19V100.2a9.525,9.525,0,0,0,5.652-3.981,17.029,17.029,0,0,0,0-18.671,9.044,9.044,0,0,0-7.34-4.167,9.044,9.044,0,0,0-7.34,4.167,17.029,17.029,0,0,0,0,18.671,9.525,9.525,0,0,0,5.652,3.981v4.207l-4.308-2.156A1.689,1.689,0,0,0,14,105.273l5.819,2.907v5.709H9.688a1.688,1.688,0,1,0,0,3.376H110.953a1.688,1.688,0,1,0,0-3.376Zm-25.316-72.4a8.314,8.314,0,0,1,1.688-.171,8.476,8.476,0,0,1,8.352,7.232,1.688,1.688,0,0,0,2.116,1.39,5.063,5.063,0,1,1,1.346,9.943h-13.5ZM21.5,90.26a1.688,1.688,0,0,0-1.688,1.688v4.728c-2.873-1.158-5.063-5.173-5.063-9.791,0-5.489,3.091-10.127,6.751-10.127s6.751,4.637,6.751,10.127c0,4.618-2.19,8.633-5.063,9.791V91.948A1.688,1.688,0,0,0,21.5,90.26ZM36.228,29.567A1.688,1.688,0,0,0,35,31.189V41.315H26.565A6.751,6.751,0,1,1,28.8,28.193a1.688,1.688,0,0,0,2.061-.827,8.437,8.437,0,0,1,14.776-.487Zm35.907,84.322H48.506V112.2H72.135Zm-20.253-5.063V91.948h6.751v16.878Zm10.127,0V91.948h6.751v16.878Zm20.253,5.063H75.51v-3.376a1.688,1.688,0,0,0-1.688-1.688H72.135V90.26a1.688,1.688,0,0,0-1.688-1.688H50.194a1.688,1.688,0,0,0-1.688,1.688v18.565H46.818a1.688,1.688,0,0,0-1.688,1.688v3.376H38.38V32.461L82.261,19.925ZM105.89,97.011h-13.5V90.26h13.5Zm0-10.127H90.7a1.688,1.688,0,0,0-1.688,1.688V98.7a1.688,1.688,0,0,0,1.688,1.688h15.19v13.5H85.637V74.254l20.253,8.681Z" transform="translate(-8 -15.999)"/>
      <path id="Path_1431" data-name="Path 1431" d="M203.443,293.5a1.688,1.688,0,0,0,1.688-1.688V281.688A1.688,1.688,0,0,0,203.443,280H169.688A1.688,1.688,0,0,0,168,281.688v10.127a1.688,1.688,0,0,0,1.688,1.688Zm-32.067-10.127h30.38v6.751h-30.38Z" transform="translate(-134.245 -224.304)"/>
      <path id="Path_1432" data-name="Path 1432" d="M169.688,213.5h33.755a1.688,1.688,0,0,0,1.688-1.688V201.688A1.688,1.688,0,0,0,203.443,200H169.688A1.688,1.688,0,0,0,168,201.688v10.127A1.688,1.688,0,0,0,169.688,213.5Zm1.688-10.127h30.38v6.751h-30.38Z" transform="translate(-134.245 -161.181)"/>
      <path id="Path_1433" data-name="Path 1433" d="M169.688,133.5h33.755a1.688,1.688,0,0,0,1.688-1.688V121.688A1.688,1.688,0,0,0,203.443,120H169.688A1.688,1.688,0,0,0,168,121.688v10.127A1.688,1.688,0,0,0,169.688,133.5Zm1.688-10.127h30.38v6.751h-30.38Z" transform="translate(-134.245 -98.059)"/>
    </g>
  </g>
</svg>
