<svg xmlns="http://www.w3.org/2000/svg" width="144.654" height="144.654" viewBox="0 0 144.654 144.654">
  <g id="_004-pot" data-name="004-pot" transform="translate(1 1)">
    <ellipse id="Ellipse_79" data-name="Ellipse 79" cx="71.327" cy="71.327" rx="71.327" ry="71.327" transform="translate(0 0)" fill="#fff" stroke="#ff9e55" stroke-width="2"/>
    <g id="_001-food-store" data-name="001-food-store" transform="translate(29 26)">
      <path id="Path_1387" data-name="Path 1387" d="M100.141,99.459v46.483a3.64,3.64,0,0,1-3.641,3.641H29.131a3.64,3.64,0,0,1-3.641-3.641V99.459a7.994,7.994,0,0,0,11.761-7.373,8.316,8.316,0,0,0,8.316,8.316c4.173,0,8.316-3.1,8.316-8.932a8.932,8.932,0,0,0,17.864,0c0,5.822,4.144,8.932,8.316,8.932a8.316,8.316,0,0,0,8.316-8.316,8,8,0,0,0,11.761,7.373Z" transform="translate(-20.367 -59.048)" fill="#72c1e8"/>
      <g id="Group_468" data-name="Group 468" transform="translate(0.91 28.482)">
        <path id="Path_1388" data-name="Path 1388" d="M29.894,80.65v4.555a7.99,7.99,0,1,1-15.974.331V80.65Z" transform="translate(-13.92 -80.65)" fill="#fc5d3d"/>
        <path id="Path_1389" data-name="Path 1389" d="M214.184,80.65v4.886a7.99,7.99,0,1,1-15.974-.331V80.65Z" transform="translate(-131.107 -80.65)" fill="#fc5d3d"/>
        <path id="Path_1390" data-name="Path 1390" d="M121.334,80.66V84.6a8.932,8.932,0,0,1-17.864,0V80.66Z" transform="translate(-70.863 -80.656)" fill="#fc5d3d"/>
        <path id="Path_1391" data-name="Path 1391" d="M103.47,80.65h17.864v0H103.47Z" transform="translate(-70.863 -80.65)" fill="#fc5d3d"/>
      </g>
      <path id="Path_1392" data-name="Path 1392" d="M169.163,80.66v4.551a8.316,8.316,0,0,1-8.316,8.316c-4.173,0-8.316-3.11-8.316-8.932V80.66Z" transform="translate(-101.149 -52.174)" fill="#f2e1d6"/>
      <path id="Path_1393" data-name="Path 1393" d="M152.53,80.65h16.633v0H152.53Z" transform="translate(-101.149 -52.168)" fill="#f2e1d6"/>
      <path id="Path_1394" data-name="Path 1394" d="M74.423,80.66V84.6c0,5.833-4.144,8.932-8.316,8.932a8.316,8.316,0,0,1-8.316-8.316V80.66Z" transform="translate(-40.906 -52.174)" fill="#f2e1d6"/>
      <path id="Path_1395" data-name="Path 1395" d="M57.79,80.65H74.423v0H57.79Z" transform="translate(-40.906 -52.168)" fill="#f2e1d6"/>
      <path id="Path_1396" data-name="Path 1396" d="M102.628,168.2H43.577a.91.91,0,0,1,0-1.821h58.5V128.232a.91.91,0,0,1,1.821,0v38.689A1.276,1.276,0,0,1,102.628,168.2Zm-62.692,0H38.9a.91.91,0,0,1,0-1.821h1.036a.91.91,0,0,1,0,1.821Z" transform="translate(-28.315 -81.846)" fill="#c5e5ff"/>
      <path id="Path_1397" data-name="Path 1397" d="M25.8,95.188a5.807,5.807,0,0,1-.861-.064.91.91,0,0,1,.272-1.8,3.93,3.93,0,0,0,.59.044.91.91,0,0,1,0,1.821ZM21.284,93a5.775,5.775,0,0,1-1.247-3.576V87.68a.91.91,0,0,1,1.821,0v1.748a3.893,3.893,0,0,0,.852,2.444A.91.91,0,1,1,21.284,93Z" transform="translate(-16.899 -56.06)" fill="#ffcbc2"/>
      <path id="Path_1398" data-name="Path 1398" d="M69.994,95.188a6.106,6.106,0,0,1-.853-.06.91.91,0,0,1,.255-1.8,4.306,4.306,0,0,0,.6.042.91.91,0,1,1,0,1.821Zm-4.547-2.042A6.08,6.08,0,0,1,63.9,89.1V87.68a.91.91,0,1,1,1.821,0V89.1a4.26,4.26,0,0,0,1.083,2.838.91.91,0,1,1-1.359,1.211Z" transform="translate(-44.793 -56.06)" fill="#fff"/>
      <path id="Path_1399" data-name="Path 1399" d="M210.087,95.188a5.8,5.8,0,0,1-.861-.064.911.911,0,0,1,.272-1.8,3.909,3.909,0,0,0,.589.044.91.91,0,0,1,0,1.821ZM205.574,93a5.774,5.774,0,0,1-1.247-3.575V87.68a.91.91,0,1,1,1.821,0v1.748A3.894,3.894,0,0,0,207,91.872.91.91,0,1,1,205.574,93Z" transform="translate(-134.086 -56.06)" fill="#ffcbc2"/>
      <path id="Path_1400" data-name="Path 1400" d="M164.732,95.188a6.122,6.122,0,0,1-.853-.06.91.91,0,0,1,.254-1.8,4.323,4.323,0,0,0,.6.042.91.91,0,0,1,0,1.821Zm-4.547-2.042a6.081,6.081,0,0,1-1.544-4.049V87.68a.91.91,0,0,1,1.821,0V89.1a4.262,4.262,0,0,0,1.083,2.838.91.91,0,0,1-1.359,1.211Z" transform="translate(-105.035 -56.06)" fill="#fff"/>
      <path id="Path_1401" data-name="Path 1401" d="M116.292,95.188a6.723,6.723,0,0,1-.839-.052.91.91,0,1,1,.227-1.806,4.914,4.914,0,0,0,.612.038.91.91,0,0,1,0,1.821ZM111.7,93.368a6.729,6.729,0,0,1-2.116-4.884v-.8a.91.91,0,1,1,1.821,0v.8a4.837,4.837,0,0,0,1.542,3.557.91.91,0,1,1-1.246,1.326Z" transform="translate(-73.843 -56.06)" fill="#ffcbc2"/>
      <path id="Path_1402" data-name="Path 1402" d="M85.544,33.907H25.375L13.922,50.929H97Z" transform="translate(-13.011 -22.445)" fill="#fc5d3d"/>
      <path id="Path_1403" data-name="Path 1403" d="M101.9,4.928H49.016a3.641,3.641,0,0,0-3.641,3.641V15.48h60.17V8.569A3.641,3.641,0,0,0,101.9,4.928Z" transform="translate(-33.011 -4.018)" fill="#72c1e8"/>
      <path id="Path_1404" data-name="Path 1404" d="M107.037,17.246a.91.91,0,0,1-.91-.91V13.249H53.785a.91.91,0,0,1,0-1.821h52.887a1.276,1.276,0,0,1,1.274,1.274v3.634A.91.91,0,0,1,107.037,17.246Z" transform="translate(-37.781 -8.151)" fill="#fff"/>
      <path id="Path_1405" data-name="Path 1405" d="M164.863,50.931H148.227L145.766,33.91h12.048Z" transform="translate(-96.848 -22.447)" fill="#f2e1d6"/>
      <path id="Path_1406" data-name="Path 1406" d="M42.681,53.857H32.455a.911.911,0,0,1-.807-1.332L36.9,43.734a.91.91,0,1,1,1.614.843l-4.555,7.459h8.722a.91.91,0,0,1,0,1.821Z" transform="translate(-24.217 -28.382)" fill="#ffcbc2"/>
      <path id="Path_1407" data-name="Path 1407" d="M200.574,69.208H190.79a.91.91,0,1,1,0-1.821h9.784a.91.91,0,1,1,0,1.821Z" transform="translate(-124.9 -43.734)" fill="#ffcbc2"/>
      <path id="Path_1408" data-name="Path 1408" d="M120.3,69.21H103.92a.91.91,0,0,1,0-1.821H120.3a.91.91,0,0,1,0,1.821Z" transform="translate(-69.66 -43.736)" fill="#ffcbc2"/>
      <path id="Path_1409" data-name="Path 1409" d="M64.837,33.91H76.885L74.423,50.931H57.788Z" transform="translate(-40.905 -22.447)" fill="#f2e1d6"/>
      <path id="Path_1410" data-name="Path 1410" d="M77.092,69.21H62.029a.91.91,0,1,1,0-1.821H77.092a.91.91,0,1,1,0,1.821Z" transform="translate(-43.023 -43.736)" fill="#fff"/>
      <path id="Path_1411" data-name="Path 1411" d="M164.082,69.21H148.9a.91.91,0,0,1,0-1.821h15.182a.91.91,0,0,1,0,1.821Z" transform="translate(-98.262 -43.736)" fill="#fff"/>
      <path id="Path_1412" data-name="Path 1412" d="M94.23,129.822c-3.059,0-5.541,3.211-5.541,7.173,0,3.093,1.514,5.727,3.636,6.737a4.408,4.408,0,0,0,3.81,0c2.122-1.01,3.636-3.643,3.636-6.737C99.771,133.033,97.289,129.822,94.23,129.822Z" transform="translate(-60.554 -83.436)" fill="#f0c020"/>
      <path id="Path_1413" data-name="Path 1413" d="M102,185.944a2.556,2.556,0,1,1-5.109,0l.649-17.921a4.408,4.408,0,0,0,3.81,0Z" transform="translate(-65.767 -107.727)" fill="#f0c020"/>
      <path id="Path_1414" data-name="Path 1414" d="M151.777,186.65a2.556,2.556,0,1,1-5.109,0l.664-18.225h3.784Z" transform="translate(-97.421 -107.983)" fill="#f0c020"/>
      <path id="Path_1415" data-name="Path 1415" d="M149.985,155.669v2.747a1.9,1.9,0,0,1-1.9,1.9h-6.126a1.9,1.9,0,0,1-1.9-1.9v-2.747Z" transform="translate(-93.222 -99.871)" fill="#f0c020"/>
      <path id="Path_1416" data-name="Path 1416" d="M148.4,128.558a.91.91,0,0,0-.91.91v8.051h-3.14v-8.051a.91.91,0,0,0-1.821,0v8.051h-3.14v-8.051a.91.91,0,0,0-1.821,0v11.708a2.811,2.811,0,0,0,2.808,2.808h.229l-.63,17.281a3.466,3.466,0,1,0,6.928,0l-.626-17.281h.225a2.811,2.811,0,0,0,2.808-2.808V129.468a.91.91,0,0,0-.91-.91Zm-3.316,32.774h0a1.646,1.646,0,1,1-3.289,0l.632-17.348h2.028Zm2.406-20.155a.988.988,0,0,1-.987.987h-6.126a.989.989,0,0,1-.987-.987V139.34h8.1Z" transform="translate(-91.633 -82.632)"/>
      <path id="Path_1417" data-name="Path 1417" d="M92.64,127.322c-3.557,0-6.451,3.626-6.451,8.083a8.387,8.387,0,0,0,3.616,7.263l-.629,17.361a3.466,3.466,0,1,0,6.928,0l-.629-17.361a8.386,8.386,0,0,0,3.616-7.263c0-4.457-2.894-8.083-6.451-8.083ZM94.285,160.1a1.646,1.646,0,1,1-3.289,0l.605-16.712a5.42,5.42,0,0,0,2.079,0l.605,16.712Zm-.127-18.778a3.5,3.5,0,0,1-3.033,0c-1.863-.888-3.115-3.264-3.115-5.914,0-3.453,2.077-6.263,4.631-6.263s4.631,2.81,4.631,6.263C97.271,138.056,96.019,140.433,94.157,141.319Z" transform="translate(-58.964 -81.846)"/>
      <path id="Path_1418" data-name="Path 1418" d="M11.42,35.8a8.9,8.9,0,0,0,4.213,7.564V89.322a4.556,4.556,0,0,0,4.551,4.551H87.553A4.556,4.556,0,0,0,92.1,89.322V43.362A8.9,8.9,0,0,0,96.318,35.8c0-.139,0-4.78,0-4.92a.951.951,0,0,0-.162-.488L84.864,13.613V6.979a4.556,4.556,0,0,0-4.551-4.551H27.425a4.556,4.556,0,0,0-4.551,4.551v6.634L11.585,30.39a.977.977,0,0,0-.165.52Zm12.849-21h9.722L27.7,30H14.042ZM93.7,30H80.042L73.747,14.8h9.722ZM71.117,42.872c-3.6,0-7.406-2.633-7.406-8.022V31.822H78.523v3.644a7.415,7.415,0,0,1-7.406,7.406Zm-17.248,0a8.031,8.031,0,0,1-8.022-8.022V31.822H61.891V34.85A8.031,8.031,0,0,1,53.869,42.872ZM46.348,14.8,44.15,30H29.666L35.96,14.8Zm25.429,0L78.072,30H63.587l-2.2-15.2ZM29.214,31.822H44.027V34.85c0,5.233-3.659,8.022-7.406,8.022a7.415,7.415,0,0,1-7.406-7.406ZM59.549,14.8l2.2,15.2H45.99l2.2-15.2Zm-46.308,21V31.822H27.394v3.644a7.08,7.08,0,1,1-14.153.331ZM87.553,92.053H20.184a2.734,2.734,0,0,1-2.731-2.731V44.217a8.89,8.89,0,0,0,10.913-4.634,9.221,9.221,0,0,0,16.682-.37,9.837,9.837,0,0,0,17.639,0,9.221,9.221,0,0,0,16.682.37,8.89,8.89,0,0,0,10.913,4.634V89.322a2.733,2.733,0,0,1-2.73,2.731Zm-.135-49.181a7.09,7.09,0,0,1-7.075-7.406V31.822H94.5V35.8A7.072,7.072,0,0,1,87.419,42.872ZM24.694,6.979a2.734,2.734,0,0,1,2.731-2.731H80.312a2.734,2.734,0,0,1,2.731,2.731v6H24.694Z" transform="translate(-11.42 -2.428)"/>
    </g>
  </g>
</svg>
