<svg xmlns="http://www.w3.org/2000/svg" width="206.49" height="149.284" viewBox="0 0 206.49 149.284">
  <g id="cd" transform="translate(-24.149 -179.7)">
    <g id="XMLID_2_" transform="translate(27.149 182.7)" opacity="0.15">
      <line id="XMLID_73_" x2="200.49" stroke-width="6" transform="translate(0 143.284)" stroke="#474747" stroke-linecap="round" stroke-linejoin="round" stroke-miterlimit="10" fill="none"/>
      <g id="XMLID_32_" transform="translate(11.096 49.072)">
        <path id="XMLID_94_" d="M196.2,400.8v-21.9A14.012,14.012,0,0,1,210.205,364.9h36.171a14.012,14.012,0,0,1,14.005,14.005v22.112" transform="translate(-181.602 -364.9)" fill="none" stroke="#474747" stroke-linecap="round" stroke-linejoin="round" stroke-miterlimit="10" stroke-width="6"/>
        <path id="XMLID_88_" d="M440.88,549.965H423.4V502.509a4.322,4.322,0,0,1,4.309-4.309h8.861a4.322,4.322,0,0,1,4.309,4.309Z" transform="translate(-347.61 -462.298)" fill="none" stroke="#474747" stroke-linecap="round" stroke-linejoin="round" stroke-miterlimit="10" stroke-width="6"/>
        <rect id="XMLID_76_" width="10.342" height="6.464" stroke-width="6" transform="translate(75.79 87.667)" stroke="#474747" stroke-linecap="round" stroke-linejoin="round" stroke-miterlimit="10" fill="none"/>
        <rect id="XMLID_72_" width="10.342" height="6.464" stroke-width="6" transform="translate(7.11 87.667)" stroke="#474747" stroke-linecap="round" stroke-linejoin="round" stroke-miterlimit="10" fill="none"/>
        <path id="XMLID_70_" d="M159.48,549.965H142V502.509a4.322,4.322,0,0,1,4.309-4.309h8.861a4.322,4.322,0,0,1,4.309,4.309Z" transform="translate(-142 -462.298)" fill="none" stroke="#474747" stroke-linecap="round" stroke-linejoin="round" stroke-miterlimit="10" stroke-width="6"/>
        <path id="XMLID_65_" d="M207.2,579.981V563.31a5,5,0,0,1,5.01-5.01h48.237a5,5,0,0,1,5.01,5.01v16.672Z" transform="translate(-189.64 -506.211)" fill="none" stroke="#474747" stroke-linecap="round" stroke-linejoin="round" stroke-miterlimit="10" stroke-width="6"/>
        <rect id="XMLID_64_" width="58.229" height="12.308" stroke-width="6" transform="translate(17.56 73.77)" stroke="#474747" stroke-linecap="round" stroke-linejoin="round" stroke-miterlimit="10" fill="none"/>
        <circle id="XMLID_128_" cx="2.047" cy="2.047" r="2.047" stroke-width="6" transform="translate(44.628 24.886)" stroke="#313031" stroke-linecap="round" stroke-linejoin="round" stroke-miterlimit="10" fill="none"/>
      </g>
      <rect id="XMLID_86_" width="38.433" height="28.118" stroke-width="6" transform="translate(87.155)" stroke="#474747" stroke-linecap="round" stroke-linejoin="round" stroke-miterlimit="10" fill="none"/>
      <rect id="XMLID_84_" width="30.946" height="20.631" stroke-width="6" transform="translate(90.899 3.744)" stroke="#474747" stroke-linecap="round" stroke-linejoin="round" stroke-miterlimit="10" fill="none"/>
      <path id="XMLID_83_" d="M459,234.811l4.9-8.511,4.9,8.511Z" transform="translate(-362.526 -214.557)" fill="none" stroke="#474747" stroke-linecap="round" stroke-linejoin="round" stroke-miterlimit="10" stroke-width="6"/>
      <path id="XMLID_82_" d="M486.3,226.756l3.259-5.656,5.737,9.911h-6.545" transform="translate(-382.473 -210.758)" fill="none" stroke="#474747" stroke-linecap="round" stroke-linejoin="round" stroke-miterlimit="10" stroke-width="6"/>
      <circle id="XMLID_81_" cx="2.182" cy="2.182" r="2.182" stroke-width="6" transform="translate(112.823 7.38)" stroke="#474747" stroke-linecap="round" stroke-linejoin="round" stroke-miterlimit="10" fill="none"/>
      <path id="XMLID_66_" d="M759.385,315.1H738v10.423h21.385" transform="translate(-566.382 -279.441)" fill="none" stroke="#474747" stroke-linecap="round" stroke-linejoin="round" stroke-miterlimit="10" stroke-width="6"/>
      <line id="XMLID_63_" x2="21.358" stroke-width="6" transform="translate(150.26 46.082)" stroke="#474747" stroke-linecap="round" stroke-linejoin="round" stroke-miterlimit="10" fill="none"/>
      <line id="XMLID_62_" x1="8.161" stroke-width="6" transform="translate(163.457 35.659)" stroke="#474747" stroke-linecap="round" stroke-linejoin="round" stroke-miterlimit="10" fill="none"/>
      <rect id="XMLID_60_" width="21.358" height="10.423" stroke-width="6" transform="translate(160.952 46.082)" stroke="#474747" stroke-linecap="round" stroke-linejoin="round" stroke-miterlimit="10" fill="none"/>
      <path id="XMLID_56_" d="M756.045,392.7H738v10.423h6.922" transform="translate(-566.382 -336.141)" fill="none" stroke="#474747" stroke-linecap="round" stroke-linejoin="round" stroke-miterlimit="10" stroke-width="6"/>
      <rect id="XMLID_53_" width="21.358" height="10.423" stroke-width="6" transform="translate(150.26 56.533)" stroke="#474747" stroke-linecap="round" stroke-linejoin="round" stroke-miterlimit="10" fill="none"/>
    </g>
    <g id="_007-compact-disc" data-name="007-compact-disc" transform="translate(78.954 237.94)">
      <path id="Path_1100" data-name="Path 1100" d="M250.825,99.955a38.9,38.9,0,1,0,38.9,38.9A38.9,38.9,0,0,0,250.825,99.955Zm0,42.058a3.154,3.154,0,1,1,3.154-3.154A3.155,3.155,0,0,1,250.825,142.013Z" transform="translate(-156.196 -96.803)" fill="#aab2bd"/>
      <path id="Path_1101" data-name="Path 1101" d="M256.719,107.952a36.8,36.8,0,1,0,36.8,36.8A36.8,36.8,0,0,0,256.719,107.952Zm0,39.955a3.154,3.154,0,1,1,3.154-3.154A3.155,3.155,0,0,1,256.719,147.907Z" transform="translate(-162.09 -102.697)" fill="#ccd1d9"/>
      <g id="Group_420" data-name="Group 420" transform="translate(97.513 42.055)" opacity="0.5">
        <path id="Path_1102" data-name="Path 1102" d="M406.852,247.9H379.669l-8.566,0a3.127,3.127,0,0,1-.271,1.271l7.732,3.627,24.6,11.543A38.681,38.681,0,0,0,406.852,247.9Z" transform="translate(-370.832 -247.9)" fill="#fff"/>
      </g>
      <path id="Path_1103" data-name="Path 1103" d="M327.45,203.917a11.566,11.566,0,1,0,11.566,11.566A11.567,11.567,0,0,0,327.45,203.917Zm0,14.72a3.154,3.154,0,1,1,3.154-3.154A3.155,3.155,0,0,1,327.45,218.637Z" transform="translate(-232.82 -173.427)" fill="#ed5565"/>
      <g id="Group_421" data-name="Group 421" transform="translate(93.578 30.49)" opacity="0.3">
        <path id="Path_1104" data-name="Path 1104" d="M356.92,203.917c-.355,0-.7.021-1.051.053a11.56,11.56,0,0,1,0,23.025c.347.033.7.053,1.051.053a11.566,11.566,0,1,0,0-23.132Z" transform="translate(-355.869 -203.917)"/>
      </g>
      <g id="Group_422" data-name="Group 422" transform="translate(87.268 3.548)" opacity="0.2">
        <path id="Path_1105" data-name="Path 1105" d="M331.87,178.156c.692.131,1.4.226,2.1.32V101.462c-.707.094-1.413.189-2.1.32Z" transform="translate(-331.87 -101.462)"/>
      </g>
      <g id="Group_423" data-name="Group 423" transform="translate(9.457 1.051)">
        <rect id="Rectangle_710" data-name="Rectangle 710" width="73.607" height="82.011" transform="translate(0.001)" fill="#ffce54"/>
        <path id="Path_1106" data-name="Path 1106" d="M113.777,408.056H40.17l-4.206-4.206h73.607Z" transform="translate(-35.964 -321.838)" fill="#ffce54"/>
        <path id="Path_1107" data-name="Path 1107" d="M320.09,178.184l-4.206-4.206V91.966l4.206,4.206Z" transform="translate(-242.277 -91.966)" fill="#ffce54"/>
      </g>
      <g id="Group_424" data-name="Group 424" transform="translate(9.457 83.063)" opacity="0.2">
        <path id="Path_1108" data-name="Path 1108" d="M113.777,408.056H40.17l-4.206-4.206h73.607Z" transform="translate(-35.964 -403.85)"/>
      </g>
      <g id="Group_425" data-name="Group 425" transform="translate(83.064 1.051)" opacity="0.2">
        <path id="Path_1109" data-name="Path 1109" d="M320.09,178.184l-4.206-4.206V91.966l4.206,4.206Z" transform="translate(-315.884 -91.966)"/>
      </g>
      <g id="Group_426" data-name="Group 426" transform="translate(1.052 1.051)">
        <rect id="Rectangle_711" data-name="Rectangle 711" width="8.405" height="82.011" fill="#656d78"/>
        <path id="Path_1110" data-name="Path 1110" d="M16.61,408.056H8.2L4,403.85H12.4Z" transform="translate(-3.999 -321.838)" fill="#656d78"/>
      </g>
      <g id="Group_427" data-name="Group 427" transform="translate(1.052 83.063)" opacity="0.2">
        <path id="Path_1111" data-name="Path 1111" d="M16.61,408.056H8.2L4,403.85H12.4Z" transform="translate(-3.999 -403.85)"/>
      </g>
      <rect id="Rectangle_712" data-name="Rectangle 712" width="60.98" height="4.206" transform="translate(15.768 7.359)" fill="#656d78"/>
      <path id="Path_1112" data-name="Path 1112" d="M139.918,191.913a19.977,19.977,0,1,1-19.977-19.977A19.976,19.976,0,0,1,139.918,191.913Z" transform="translate(-73.677 -149.856)" fill="#ed5565"/>
      <g id="Group_428" data-name="Group 428" transform="translate(26.286 22.08)" opacity="0.3">
        <path id="Path_1113" data-name="Path 1113" d="M102.067,191.913a19.961,19.961,0,0,1,18.926-19.924c-.351-.018-.7-.053-1.052-.053a19.977,19.977,0,1,0,0,39.955c.356,0,.7-.035,1.052-.053A19.96,19.96,0,0,1,102.067,191.913Z" transform="translate(-99.964 -171.936)" fill="#fff"/>
      </g>
      <g id="Group_429" data-name="Group 429" transform="translate(45.212 22.08)" opacity="0.2">
        <path id="Path_1114" data-name="Path 1114" d="M190.863,191.913a19.961,19.961,0,0,1-18.926,19.924c.351.018.7.053,1.051.053a19.977,19.977,0,1,0,0-39.955c-.355,0-.7.035-1.051.053A19.96,19.96,0,0,1,190.863,191.913Z" transform="translate(-171.937 -171.936)"/>
      </g>
      <path id="Path_1115" data-name="Path 1115" d="M155.084,215.491a11.566,11.566,0,1,1-11.566-11.566A11.57,11.57,0,0,1,155.084,215.491Z" transform="translate(-97.254 -173.433)" fill="#ffce54"/>
      <g id="Group_430" data-name="Group 430" transform="translate(34.698 30.491)" opacity="0.5">
        <path id="Path_1116" data-name="Path 1116" d="M134.055,215.49a11.567,11.567,0,0,1,10.514-11.513c-.347-.031-.7-.053-1.052-.053a11.566,11.566,0,1,0,0,23.131c.356,0,.7-.023,1.052-.053A11.566,11.566,0,0,1,134.055,215.49Z" transform="translate(-131.952 -203.924)" fill="#fff"/>
      </g>
      <g id="Group_431" data-name="Group 431" transform="translate(45.206 30.492)" opacity="0.2">
        <path id="Path_1117" data-name="Path 1117" d="M182.428,215.491A11.567,11.567,0,0,1,171.914,227c.347.031.7.053,1.051.053a11.566,11.566,0,1,0,0-23.131c-.355,0-.7.022-1.051.053A11.567,11.567,0,0,1,182.428,215.491Z" transform="translate(-171.914 -203.925)"/>
      </g>
      <g id="Group_432" data-name="Group 432" transform="translate(1.052 1.051)" opacity="0.2">
        <rect id="Rectangle_713" data-name="Rectangle 713" width="2.101" height="82.011" fill="#fff"/>
      </g>
      <g id="Group_433" data-name="Group 433" transform="translate(7.359 1.051)" opacity="0.2">
        <rect id="Rectangle_714" data-name="Rectangle 714" width="2.101" height="82.011"/>
      </g>
      <g id="Group_434" data-name="Group 434" transform="translate(9.46 1.051)" opacity="0.2">
        <rect id="Rectangle_715" data-name="Rectangle 715" width="2.101" height="82.011"/>
      </g>
      <g id="Group_435" data-name="Group 435" transform="translate(80.963 1.051)" opacity="0.2">
        <rect id="Rectangle_716" data-name="Rectangle 716" width="2.101" height="82.011"/>
      </g>
      <g id="Group_436" data-name="Group 436" transform="translate(15.768 7.359)" opacity="0.2">
        <rect id="Rectangle_717" data-name="Rectangle 717" width="2.106" height="4.206" fill="#fff"/>
      </g>
      <g id="Group_437" data-name="Group 437" transform="translate(74.639 7.359)" opacity="0.2">
        <rect id="Rectangle_718" data-name="Rectangle 718" width="2.106" height="4.206"/>
      </g>
      <g id="Group_438" data-name="Group 438" transform="translate(0 0)">
        <path id="Path_1118" data-name="Path 1118" d="M133.218,222.52a1.048,1.048,0,0,1-.669-.24,12.615,12.615,0,0,1,6.876-22.3c.382-.033.762-.051,1.146-.051a1.051,1.051,0,1,1,0,2.1c-.322,0-.641.014-.959.043a10.512,10.512,0,0,0-5.723,18.585,1.052,1.052,0,0,1-.67,1.863Z" transform="translate(-94.307 -170.486)" fill="#3a3847"/>
        <path id="Path_1119" data-name="Path 1119" d="M172.988,232.554a1.051,1.051,0,0,1,0-2.1,10.515,10.515,0,0,0,6.686-18.63,1.052,1.052,0,0,1,1.339-1.622,12.619,12.619,0,0,1-8.025,22.355Z" transform="translate(-126.725 -177.88)" fill="#3a3847"/>
        <path id="Path_1120" data-name="Path 1120" d="M167.3,240.325a1.048,1.048,0,0,1-.743-.308l-6.309-6.309a1.051,1.051,0,0,1,1.487-1.487l6.309,6.309a1.052,1.052,0,0,1-.743,1.795Z" transform="translate(-117.884 -194.062)" fill="#3a3847"/>
        <path id="Path_1121" data-name="Path 1121" d="M160.993,192.758a1.051,1.051,0,0,1-.743-1.795l14.72-14.72a1.051,1.051,0,1,1,1.487,1.487l-14.72,14.72A1.049,1.049,0,0,1,160.993,192.758Z" transform="translate(-117.884 -152.804)" fill="#3a3847"/>
        <path id="Path_1122" data-name="Path 1122" d="M129,272.728a1.051,1.051,0,0,1-.743-1.795l14.72-14.72a1.051,1.051,0,0,1,1.487,1.487l-14.72,14.72A1.048,1.048,0,0,1,129,272.728Z" transform="translate(-94.307 -211.745)" fill="#3a3847"/>
        <path id="Path_1123" data-name="Path 1123" d="M103.334,204.6a1.05,1.05,0,0,1-.719-.283,21.035,21.035,0,0,1,22.125-34.9,1.051,1.051,0,1,1-.772,1.955,18.93,18.93,0,0,0-19.916,31.412,1.051,1.051,0,0,1-.719,1.819Z" transform="translate(-70.731 -146.909)" fill="#3a3847"/>
        <path id="Path_1124" data-name="Path 1124" d="M152.375,225.171a20.944,20.944,0,0,1-7.742-1.47,1.052,1.052,0,0,1,.776-1.955,18.93,18.93,0,0,0,19.922-31.4,1.052,1.052,0,0,1,1.442-1.532,21.031,21.031,0,0,1-14.4,36.359Z" transform="translate(-106.112 -162.085)" fill="#3a3847"/>
        <path id="Path_1125" data-name="Path 1125" d="M118,118.266H57.016a1.051,1.051,0,0,1-1.051-1.052v-4.206a1.051,1.051,0,0,1,1.051-1.052H118a1.051,1.051,0,0,1,1.052,1.052v4.206A1.051,1.051,0,0,1,118,118.266Zm-59.928-2.1h58.876v-2.1H58.068Z" transform="translate(-41.249 -105.649)" fill="#3a3847"/>
        <path id="Path_1126" data-name="Path 1126" d="M67.523,146.049H57.008a1.052,1.052,0,0,1,0-2.1H67.523a1.052,1.052,0,1,1,0,2.1Z" transform="translate(-41.243 -129.226)" fill="#3a3847"/>
        <path id="Path_1127" data-name="Path 1127" d="M259.443,146.049H248.929a1.052,1.052,0,1,1,0-2.1h10.514a1.052,1.052,0,1,1,0,2.1Z" transform="translate(-182.696 -129.226)" fill="#3a3847"/>
        <path id="Path_1128" data-name="Path 1128" d="M83.064,172.083H1.052A1.051,1.051,0,0,1,0,171.031V89.019a1.051,1.051,0,0,1,1.052-1.051H83.064a1.051,1.051,0,0,1,1.052,1.051v82.012A1.05,1.05,0,0,1,83.064,172.083ZM2.1,169.98h79.91V90.071H2.1Z" transform="translate(0 -87.968)" fill="#3a3847"/>
        <path id="Path_1129" data-name="Path 1129" d="M353.957,225.161c-.38,0-.753-.018-1.123-.049a1.05,1.05,0,0,1-.959-1.135,1.077,1.077,0,0,1,1.135-.959c.312.027.629.041.947.041a10.514,10.514,0,0,0,0-21.029c-.326,0-.647.014-.965.043a1.051,1.051,0,0,1-.185-2.094c.38-.033.762-.051,1.15-.051a12.617,12.617,0,1,1,0,25.234Z" transform="translate(-259.327 -170.487)" fill="#3a3847"/>
        <path id="Path_1130" data-name="Path 1130" d="M348.079,240.325a4.206,4.206,0,1,1,4.206-4.206A4.212,4.212,0,0,1,348.079,240.325Zm0-6.309a2.1,2.1,0,1,0,2.1,2.1A2.1,2.1,0,0,0,348.079,234.017Z" transform="translate(-253.449 -194.062)" fill="#3a3847"/>
        <path id="Path_1131" data-name="Path 1131" d="M348.063,175.873q-1.565,0-3.1-.117a1.052,1.052,0,1,1,.16-2.1q1.457.11,2.941.113a37.852,37.852,0,1,0,0-75.7q-1.553,0-3.076.123a1.062,1.062,0,0,1-1.132-.963,1.049,1.049,0,0,1,.963-1.132q1.6-.129,3.245-.131a39.955,39.955,0,1,1,0,79.909Z" transform="translate(-253.433 -93.861)" fill="#3a3847"/>
        <path id="Path_1132" data-name="Path 1132" d="M99.058,417.949H17.046a1.051,1.051,0,1,1,0-2.1H99.058a1.051,1.051,0,1,1,0,2.1Z" transform="translate(-11.788 -329.628)" fill="#3a3847"/>
        <path id="Path_1133" data-name="Path 1133" d="M5.258,406.16a1.049,1.049,0,0,1-.743-.308L.31,401.646A1.051,1.051,0,0,1,1.8,400.16L6,404.365a1.052,1.052,0,0,1-.744,1.795Z" transform="translate(-0.001 -317.84)" fill="#3a3847"/>
        <path id="Path_1134" data-name="Path 1134" d="M317.143,406.161a1.05,1.05,0,0,1-.743-.308l-4.206-4.206a1.051,1.051,0,1,1,1.487-1.487l4.206,4.206a1.051,1.051,0,0,1-.743,1.795Z" transform="translate(-229.873 -317.84)" fill="#3a3847"/>
        <path id="Path_1135" data-name="Path 1135" d="M317.136,92.175a1.039,1.039,0,0,1-.47-.111l-4.2-2.1a1.052,1.052,0,0,1,.94-1.881l4.2,2.1a1.051,1.051,0,0,1-.47,1.992Z" transform="translate(-229.872 -87.969)" fill="#3a3847"/>
        <path id="Path_1136" data-name="Path 1136" d="M328.925,184.129a1.051,1.051,0,0,1-1.052-1.051l0-83.421a1.052,1.052,0,0,1,2.1,0l0,83.421A1.051,1.051,0,0,1,328.925,184.129Z" transform="translate(-241.655 -95.808)" fill="#3a3847"/>
        <path id="Path_1137" data-name="Path 1137" d="M33.017,175.874a1.051,1.051,0,0,1-1.052-1.051V97.016a1.052,1.052,0,0,1,2.1,0v77.807A1.051,1.051,0,0,1,33.017,175.874Z" transform="translate(-23.56 -93.862)" fill="#3a3847"/>
        <path id="Path_1138" data-name="Path 1138" d="M37.223,406.161a1.049,1.049,0,0,1-.743-.308l-4.206-4.206a1.051,1.051,0,1,1,1.487-1.487l4.206,4.206a1.051,1.051,0,0,1-.743,1.795Z" transform="translate(-23.56 -317.84)" fill="#3a3847"/>
        <path id="Path_1139" data-name="Path 1139" d="M3.148,114.06h-2.1a1.052,1.052,0,0,1,0-2.1h2.1a1.052,1.052,0,0,1,0,2.1Z" transform="translate(0 -105.649)" fill="#3a3847"/>
        <path id="Path_1140" data-name="Path 1140" d="M3.148,138.052h-2.1a1.052,1.052,0,0,1,0-2.1h2.1a1.052,1.052,0,0,1,0,2.1Z" transform="translate(0 -123.332)" fill="#3a3847"/>
        <path id="Path_1141" data-name="Path 1141" d="M3.148,162.043h-2.1a1.051,1.051,0,1,1,0-2.1h2.1a1.051,1.051,0,1,1,0,2.1Z" transform="translate(0 -141.014)" fill="#3a3847"/>
        <path id="Path_1142" data-name="Path 1142" d="M3.148,186.034h-2.1a1.051,1.051,0,1,1,0-2.1h2.1a1.051,1.051,0,1,1,0,2.1Z" transform="translate(0 -158.697)" fill="#3a3847"/>
        <path id="Path_1143" data-name="Path 1143" d="M3.148,210.025h-2.1a1.052,1.052,0,1,1,0-2.1h2.1a1.052,1.052,0,1,1,0,2.1Z" transform="translate(0 -176.379)" fill="#3a3847"/>
        <path id="Path_1144" data-name="Path 1144" d="M3.148,234.016h-2.1a1.052,1.052,0,1,1,0-2.1h2.1a1.052,1.052,0,1,1,0,2.1Z" transform="translate(0 -194.062)" fill="#3a3847"/>
        <path id="Path_1145" data-name="Path 1145" d="M3.148,258.008h-2.1a1.051,1.051,0,1,1,0-2.1h2.1a1.051,1.051,0,1,1,0,2.1Z" transform="translate(0 -211.745)" fill="#3a3847"/>
        <path id="Path_1146" data-name="Path 1146" d="M3.148,282h-2.1a1.051,1.051,0,1,1,0-2.1h2.1a1.051,1.051,0,1,1,0,2.1Z" transform="translate(0 -229.427)" fill="#3a3847"/>
        <path id="Path_1147" data-name="Path 1147" d="M3.148,305.99h-2.1a1.051,1.051,0,1,1,0-2.1h2.1a1.051,1.051,0,1,1,0,2.1Z" transform="translate(0 -247.11)" fill="#3a3847"/>
        <path id="Path_1148" data-name="Path 1148" d="M3.148,329.982h-2.1a1.051,1.051,0,1,1,0-2.1h2.1a1.051,1.051,0,1,1,0,2.1Z" transform="translate(0 -264.793)" fill="#3a3847"/>
        <path id="Path_1149" data-name="Path 1149" d="M3.148,353.972h-2.1a1.052,1.052,0,1,1,0-2.1h2.1a1.052,1.052,0,1,1,0,2.1Z" transform="translate(0 -282.474)" fill="#3a3847"/>
        <path id="Path_1150" data-name="Path 1150" d="M3.148,377.963h-2.1a1.051,1.051,0,1,1,0-2.1h2.1a1.051,1.051,0,1,1,0,2.1Z" transform="translate(0 -300.157)" fill="#3a3847"/>
        <path id="Path_1151" data-name="Path 1151" d="M127.263,361.97H81a1.051,1.051,0,1,1,0-2.1h46.263a1.051,1.051,0,1,1,0,2.1Z" transform="translate(-58.925 -288.369)" fill="#3a3847"/>
        <path id="Path_1152" data-name="Path 1152" d="M146.207,377.963H120.961a1.051,1.051,0,1,1,0-2.1h25.247a1.051,1.051,0,1,1,0,2.1Z" transform="translate(-88.378 -300.157)" fill="#3a3847"/>
      </g>
    </g>
  </g>
</svg>
