<svg xmlns="http://www.w3.org/2000/svg" width="231.326" height="177.582" viewBox="0 0 231.326 177.582">
  <g id="time" transform="translate(-43.284 -234)">
    <g id="XMLID_3_" transform="translate(46.284 237)" opacity="0.15">
      <path id="XMLID_10_" d="M608.709,237V380.467c0,9.514-3.894,17.239-8.729,17.239H523.929c-4.8,0-8.729-7.724-8.729-17.239V267.772" transform="translate(-399.711 -237)" fill="none" stroke="#474747" stroke-linecap="round" stroke-linejoin="round" stroke-miterlimit="10" stroke-width="6"/>
      <line id="XMLID_9_" x2="207.868" stroke-width="6" transform="translate(17.458 160.674)" stroke="#474747" stroke-linecap="round" stroke-linejoin="round" stroke-miterlimit="10" fill="none"/>
      <line id="XMLID_18_" x2="93.509" stroke-width="6" transform="translate(115.489 68.138)" stroke="#474747" stroke-linecap="round" stroke-linejoin="round" stroke-miterlimit="10" fill="none"/>
      <line id="XMLID_22_" x2="93.509" stroke-width="6" transform="translate(115.489 134.989)" stroke="#474747" stroke-linecap="round" stroke-linejoin="round" stroke-miterlimit="10" fill="none"/>
      <path id="XMLID_17_" d="M758.7,531.292h-6.374a3.431,3.431,0,0,1-3.423-3.423V478.823a3.431,3.431,0,0,1,3.423-3.423H758.7a3.431,3.431,0,0,1,3.423,3.423v49.047A3.431,3.431,0,0,1,758.7,531.292Z" transform="translate(-560.029 -400.542)" fill="none" stroke="#474747" stroke-linecap="round" stroke-linejoin="round" stroke-miterlimit="10" stroke-width="6"/>
      <path id="XMLID_25_" d="M699.6,531.292h-6.374a3.431,3.431,0,0,1-3.423-3.423V478.823a3.431,3.431,0,0,1,3.423-3.423H699.6a3.431,3.431,0,0,1,3.423,3.423v49.047A3.411,3.411,0,0,1,699.6,531.292Z" transform="translate(-519.486 -400.542)" fill="none" stroke="#474747" stroke-linecap="round" stroke-linejoin="round" stroke-miterlimit="10" stroke-width="6"/>
      <path id="XMLID_60_" d="M758.7,318.292h-6.374a3.431,3.431,0,0,1-3.423-3.423V265.823a3.431,3.431,0,0,1,3.423-3.423H758.7a3.431,3.431,0,0,1,3.423,3.423v49.047A3.431,3.431,0,0,1,758.7,318.292Z" transform="translate(-560.029 -254.424)" fill="none" stroke="#474747" stroke-linecap="round" stroke-linejoin="round" stroke-miterlimit="10" stroke-width="6"/>
      <path id="XMLID_58_" d="M611.892,401.623V408a3.431,3.431,0,0,1-3.423,3.423H559.423A3.431,3.431,0,0,1,556,408v-6.374a3.431,3.431,0,0,1,3.423-3.423h49.047A3.431,3.431,0,0,1,611.892,401.623Z" transform="translate(-427.7 -347.583)" fill="none" stroke="#474747" stroke-linecap="round" stroke-linejoin="round" stroke-miterlimit="10" stroke-width="6"/>
      <path id="XMLID_61_" d="M618.546,354.823V359a3.431,3.431,0,0,1-3.423,3.423h-46A3.431,3.431,0,0,1,565.7,359v-4.176a3.431,3.431,0,0,1,3.423-3.423h46A3.431,3.431,0,0,1,618.546,354.823Z" transform="translate(-434.354 -315.478)" fill="none" stroke="#474747" stroke-linecap="round" stroke-linejoin="round" stroke-miterlimit="10" stroke-width="6"/>
      <path id="XMLID_34_" d="M600.33,553.552,596,551.731a2.369,2.369,0,0,1-1.287-3.077L610.566,510.6a2.369,2.369,0,0,1,3.077-1.287l4.333,1.821a2.369,2.369,0,0,1,1.287,3.077l-15.857,38.057A2.343,2.343,0,0,1,600.33,553.552Z" transform="translate(-454.132 -423.682)" fill="none" stroke="#474747" stroke-linecap="round" stroke-linejoin="round" stroke-miterlimit="10" stroke-width="6"/>
      <path id="XMLID_57_" d="M147.4,460.7h24.9v12.152H147.4" transform="translate(-147.4 -390.458)" fill="none" stroke="#474747" stroke-linecap="round" stroke-linejoin="round" stroke-miterlimit="10" stroke-width="6"/>
      <line id="XMLID_59_" x1="24.932" stroke-width="6" transform="translate(24.9 82.394)" stroke="#474747" stroke-linecap="round" stroke-linejoin="round" stroke-miterlimit="10" fill="none"/>
      <line id="XMLID_38_" x2="9.546" stroke-width="6" transform="translate(24.9 70.242)" stroke="#474747" stroke-linecap="round" stroke-linejoin="round" stroke-miterlimit="10" fill="none"/>
      <rect id="XMLID_42_" width="24.9" height="12.152" stroke-width="6" transform="translate(12.434 82.394)" stroke="#474747" stroke-linecap="round" stroke-linejoin="round" stroke-miterlimit="10" fill="none"/>
      <path id="XMLID_52_" d="M159.7,538.3h21.038v12.12h-8.07" transform="translate(-155.838 -443.692)" fill="none" stroke="#474747" stroke-linecap="round" stroke-linejoin="round" stroke-miterlimit="10" stroke-width="6"/>
      <rect id="XMLID_54_" width="24.9" height="12.152" stroke-width="6" transform="translate(24.9 94.608)" stroke="#474747" stroke-linecap="round" stroke-linejoin="round" stroke-miterlimit="10" fill="none"/>
      <rect id="XMLID_23_" width="38.653" height="31.337" stroke-width="6" transform="translate(51.559 24.743)" stroke="#474747" stroke-linecap="round" stroke-linejoin="round" stroke-miterlimit="10" fill="none"/>
      <path id="XMLID_62_" d="M328.6,370.068l7.1-10.268,7.316,9.075" transform="translate(-271.703 -321.241)" fill="none" stroke="#474747" stroke-linecap="round" stroke-linejoin="round" stroke-miterlimit="10" stroke-width="6"/>
      <path id="XMLID_64_" d="M365.9,357.108l9.891-9.608,7.034,14.13" transform="translate(-297.291 -312.803)" fill="none" stroke="#474747" stroke-linecap="round" stroke-linejoin="round" stroke-miterlimit="10" stroke-width="6"/>
      <path id="XMLID_63_" d="M357.7,362.343a3.714,3.714,0,0,1,6.72-.722" transform="translate(-291.666 -321.241)" fill="none" stroke="#474747" stroke-linecap="round" stroke-linejoin="round" stroke-miterlimit="10" stroke-width="6"/>
    </g>
    <g id="_001-attendance" data-name="001-attendance" transform="translate(100 285.582)">
      <path id="Path_980" data-name="Path 980" d="M254.34,63.4a2.34,2.34,0,0,1,0-4.679,7.019,7.019,0,1,0,0-14.038,2.34,2.34,0,0,1,0-4.679,11.7,11.7,0,1,1,0,23.4Z" transform="translate(-184.148 -40)" fill="#aac3d7"/>
      <path id="Path_981" data-name="Path 981" d="M102.34,63.4a2.34,2.34,0,1,1,0-4.679,7.019,7.019,0,0,0,0-14.038,2.34,2.34,0,1,1,0-4.679,11.7,11.7,0,1,1,0,23.4Z" transform="translate(-76.603 -40)" fill="#aac3d7"/>
      <path id="Path_982" data-name="Path 982" d="M20,144H127.627v70.191a9.359,9.359,0,0,1-9.359,9.359H29.359A9.359,9.359,0,0,1,20,214.191Z" transform="translate(-20 -113.584)" fill="#aac3d7"/>
      <path id="Path_983" data-name="Path 983" d="M20,144h95.928v70.191a9.359,9.359,0,0,1-9.359,9.359H29.359A9.359,9.359,0,0,1,20,214.191Z" transform="translate(-20 -113.584)" fill="#d7e6e6"/>
      <path id="Path_984" data-name="Path 984" d="M29.359,80h88.909a9.359,9.359,0,0,1,9.359,9.359v9.359H20V89.359A9.359,9.359,0,0,1,29.359,80Z" transform="translate(-20 -68.301)" fill="#85b578"/>
      <path id="Path_985" data-name="Path 985" d="M29.359,80H106.57a9.359,9.359,0,0,1,9.359,9.359v9.359H20V89.359A9.359,9.359,0,0,1,29.359,80Z" transform="translate(-20 -68.301)" fill="#9acf8d"/>
      <path id="Path_986" data-name="Path 986" d="M79.7,63.4a11.7,11.7,0,1,1,0-23.4,2.34,2.34,0,0,1,0,4.679,7.019,7.019,0,1,0,0,14.038,2.34,2.34,0,0,1,0,4.679Z" transform="translate(-53.962 -40)" fill="#d7e6e6"/>
      <path id="Path_987" data-name="Path 987" d="M231.7,63.4a11.7,11.7,0,1,1,0-23.4,2.34,2.34,0,0,1,0,4.679,7.019,7.019,0,1,0,0,14.038,2.34,2.34,0,0,1,0,4.679Z" transform="translate(-161.507 -40)" fill="#d7e6e6"/>
      <g id="Group_392" data-name="Group 392" transform="translate(9.359 42.115)">
        <path id="Path_988" data-name="Path 988" d="M137.353,184.685a2.34,2.34,0,0,0-3.309,0l-3.025,3.025-3.025-3.025a2.34,2.34,0,1,0-3.309,3.309l3.025,3.025-3.025,3.025a2.34,2.34,0,1,0,3.309,3.309l3.025-3.025,3.025,3.025a2.34,2.34,0,0,0,3.309-3.309l-3.025-3.025,3.025-3.025A2.34,2.34,0,0,0,137.353,184.685Z" transform="translate(-102.942 -184)" fill="#f04b37"/>
        <path id="Path_989" data-name="Path 989" d="M209.353,184.685a2.34,2.34,0,0,0-3.309,0l-3.025,3.025-3.025-3.025a2.34,2.34,0,0,0-3.309,3.309l3.025,3.025-3.025,3.025a2.34,2.34,0,0,0,3.309,3.309l3.025-3.025,3.025,3.025a2.34,2.34,0,1,0,3.309-3.309l-3.025-3.025,3.025-3.025A2.34,2.34,0,0,0,209.353,184.685Z" transform="translate(-153.885 -184)" fill="#f04b37"/>
        <path id="Path_990" data-name="Path 990" d="M278.328,191.019l3.025-3.025a2.34,2.34,0,1,0-3.309-3.309l-3.025,3.025-3.025-3.025a2.34,2.34,0,1,0-3.309,3.309l3.025,3.025-3.025,3.025a2.34,2.34,0,0,0,3.309,3.309l3.025-3.025,3.025,3.025a2.34,2.34,0,0,0,3.309-3.309Z" transform="translate(-204.827 -184)" fill="#f04b37"/>
        <path id="Path_991" data-name="Path 991" d="M65.353,256.685a2.34,2.34,0,0,0-3.309,0l-3.025,3.025-3.025-3.025a2.34,2.34,0,0,0-3.309,3.309l3.025,3.025-3.025,3.025a2.34,2.34,0,1,0,3.309,3.309l3.025-3.025,3.025,3.025a2.34,2.34,0,1,0,3.309-3.309l-3.025-3.025,3.025-3.025A2.34,2.34,0,0,0,65.353,256.685Z" transform="translate(-52 -234.942)" fill="#f04b37"/>
        <path id="Path_992" data-name="Path 992" d="M137.353,256.685a2.34,2.34,0,0,0-3.309,0l-3.025,3.025-3.025-3.025a2.34,2.34,0,0,0-3.309,3.309l3.025,3.025-3.025,3.025a2.34,2.34,0,1,0,3.309,3.309l3.025-3.025,3.025,3.025a2.34,2.34,0,0,0,3.309-3.309l-3.025-3.025,3.025-3.025A2.34,2.34,0,0,0,137.353,256.685Z" transform="translate(-102.942 -234.942)" fill="#f04b37"/>
        <path id="Path_993" data-name="Path 993" d="M209.353,256.685a2.34,2.34,0,0,0-3.309,0l-3.025,3.025-3.025-3.025a2.34,2.34,0,0,0-3.309,3.309l3.025,3.025-3.025,3.025a2.34,2.34,0,0,0,3.309,3.309l3.025-3.025,3.025,3.025a2.34,2.34,0,1,0,3.309-3.309l-3.025-3.025,3.025-3.025A2.34,2.34,0,0,0,209.353,256.685Z" transform="translate(-153.885 -234.942)" fill="#f04b37"/>
        <path id="Path_994" data-name="Path 994" d="M281.353,256.685a2.34,2.34,0,0,0-3.309,0l-3.025,3.025-3.025-3.025a2.34,2.34,0,0,0-3.309,3.309l3.025,3.025-3.025,3.025a2.34,2.34,0,0,0,3.309,3.309l3.025-3.025,3.025,3.025a2.34,2.34,0,0,0,3.309-3.309l-3.025-3.025,3.025-3.025A2.34,2.34,0,0,0,281.353,256.685Z" transform="translate(-204.827 -234.942)" fill="#f04b37"/>
        <path id="Path_995" data-name="Path 995" d="M65.353,328.685a2.34,2.34,0,0,0-3.309,0l-3.025,3.025-3.025-3.025a2.34,2.34,0,1,0-3.309,3.309l3.025,3.025-3.025,3.025a2.34,2.34,0,1,0,3.309,3.309l3.025-3.025,3.025,3.025a2.34,2.34,0,1,0,3.309-3.309l-3.025-3.025,3.025-3.025A2.34,2.34,0,0,0,65.353,328.685Z" transform="translate(-52 -285.885)" fill="#f04b37"/>
        <path id="Path_996" data-name="Path 996" d="M137.353,328.685a2.34,2.34,0,0,0-3.309,0l-3.025,3.025-3.025-3.025a2.34,2.34,0,1,0-3.309,3.309l3.025,3.025-3.025,3.025a2.34,2.34,0,1,0,3.309,3.309l3.025-3.025,3.025,3.025a2.34,2.34,0,0,0,3.309-3.309l-3.025-3.025,3.025-3.025A2.34,2.34,0,0,0,137.353,328.685Z" transform="translate(-102.942 -285.885)" fill="#f04b37"/>
        <path id="Path_997" data-name="Path 997" d="M209.353,328.685a2.34,2.34,0,0,0-3.309,0l-3.025,3.025-3.025-3.025a2.34,2.34,0,0,0-3.309,3.309l3.025,3.025-3.025,3.025a2.34,2.34,0,0,0,3.309,3.309l3.025-3.025,3.025,3.025a2.34,2.34,0,1,0,3.309-3.309l-3.025-3.025,3.025-3.025A2.34,2.34,0,0,0,209.353,328.685Z" transform="translate(-153.885 -285.885)" fill="#f04b37"/>
      </g>
      <path id="Path_1201" data-name="Path 1201" d="M35,0H45a35,35,0,0,1,0,70H35A35,35,0,0,1,35,0Z" transform="translate(58 56)" fill="#9acf8d"/>
      <ellipse id="Ellipse_68" data-name="Ellipse 68" cx="35.5" cy="35" rx="35.5" ry="35" transform="translate(58 56)" fill="#bfe8b3"/>
      <path id="Path_998" data-name="Path 998" d="M233.17,276.756a1.17,1.17,0,0,1-1.17-1.17A31.622,31.622,0,0,1,263.586,244a1.17,1.17,0,1,1,0,2.34,29.279,29.279,0,0,0-29.246,29.246A1.17,1.17,0,0,1,233.17,276.756Z" transform="translate(-169.997 -184.337)" fill="#ffdc37"/>
      <ellipse id="Ellipse_69" data-name="Ellipse 69" cx="25.5" cy="26" rx="25.5" ry="26" transform="translate(68 65)" fill="#d7e6f0"/>
      <path id="Path_999" data-name="Path 999" d="M334.34,400a2.34,2.34,0,0,0-2.34,2.34v2.34a2.34,2.34,0,1,0,4.679,0v-2.34A2.34,2.34,0,0,0,334.34,400Z" transform="translate(-240.751 -294.713)" fill="#353744"/>
      <path id="Path_1000" data-name="Path 1000" d="M392.679,344h-2.34a2.34,2.34,0,0,0,0,4.679h2.34a2.34,2.34,0,0,0,0-4.679Z" transform="translate(-280.373 -255.091)" fill="#353744"/>
      <path id="Path_1001" data-name="Path 1001" d="M291.4,294.439v-12.1a2.34,2.34,0,1,0-4.679,0v12.1a7.036,7.036,0,0,0-4.278,4.278h-12.1a2.34,2.34,0,1,0,0,4.679h12.1a7.019,7.019,0,1,0,8.958-8.958Z" transform="translate(-195.469 -209.809)" fill="#353744"/>
      <ellipse id="Ellipse_70" data-name="Ellipse 70" cx="2.5" cy="2" rx="2.5" ry="2" transform="translate(91 89)" fill="#faa51e"/>
    </g>
  </g>
</svg>
